<svg width="360" height="360" viewBox="0 0 360 360" fill="none" xmlns="http://www.w3.org/2000/svg">
  <rect width="360" height="360" fill="transparent"/>
  <g transform="translate(40 30)">
    <animateTransform
      attributeName="transform"
      type="translate"
      values="40 30; 40 22; 40 30"
      dur="3.5s"
      repeatCount="indefinite"
    />
      <animateTransform
        attributeName="transform"
        type="rotate"
        values="0 140 150; 3 140 150; 0 140 150; -3 140 150; 0 140 150"
        dur="6s"
        repeatCount="indefinite"
        additive="sum"
      />
    <path d="M140 0 L280 80 L280 220 L140 300 L0 220 L0 80 Z" fill="#F8F5F0" stroke="#D9D2C8" stroke-width="4"/>
    <path d="M140 0 L280 80 L280 220 L140 300 L0 220 L0 80 Z" fill="none" stroke="#BFB6AA" stroke-opacity="0.35" stroke-width="2"/>
    <path d="M140 0 L280 80 L140 160 L0 80 Z" fill="#FFFFFF" stroke="#E5DDD2" stroke-width="3"/>
    <path d="M140 160 L280 80 L280 220 L140 300 Z" fill="#EFE8DD" stroke="#D9D2C8" stroke-width="3"/>
    <path d="M140 160 L0 80 L0 220 L140 300 Z" fill="#F3EEE6" stroke="#D9D2C8" stroke-width="3"/>
    <circle cx="70" cy="150" r="6" fill="#E3DBD1"/>
    <circle cx="110" cy="190" r="5" fill="#E3DBD1"/>
    <circle cx="210" cy="140" r="6" fill="#E3DBD1"/>
    <circle cx="230" cy="200" r="5" fill="#E3DBD1"/>
    <circle cx="160" cy="90" r="4" fill="#EAE3D8"/>
      <g>
        <animateTransform
          attributeName="transform"
          type="translate"
          values="0 0; 1 -1; 0 0"
          dur="2.8s"
          repeatCount="indefinite"
        />
        <circle cx="90" cy="115" r="4" fill="#EAD1C9" fill-opacity="0.65" stroke="#C9B3A7" stroke-opacity="0.25" stroke-width="0.8"/>
        <circle cx="120" cy="130" r="3.5" fill="#D9E3D8" fill-opacity="0.65" stroke="#B7C3B6" stroke-opacity="0.25" stroke-width="0.8"/>
        <circle cx="200" cy="120" r="4" fill="#D8DFF0" fill-opacity="0.65" stroke="#B1BBD2" stroke-opacity="0.25" stroke-width="0.8"/>
        <circle cx="210" cy="175" r="3.5" fill="#F0E1C5" fill-opacity="0.65" stroke="#CDBF9F" stroke-opacity="0.25" stroke-width="0.8"/>
        <circle cx="70" cy="185" r="3.5" fill="#E7D7EE" fill-opacity="0.65" stroke="#C3AFCB" stroke-opacity="0.25" stroke-width="0.8"/>
      </g>
  </g>
</svg>
